<?xml version="1.0" standalone="no"?>
<!DOCTYPE svg PUBLIC "-//W3C//DTD SVG 20010904//EN"
 "http://www.w3.org/TR/2001/REC-SVG-20010904/DTD/svg10.dtd">
<svg version="1.0" xmlns="http://www.w3.org/2000/svg"
 width="448.000000pt" height="409.000000pt" viewBox="0 0 448.000000 409.000000"
 preserveAspectRatio="xMidYMid meet">

<g transform="translate(0.000000,409.000000) scale(0.100000,-0.100000)"
fill="#000000" stroke="none">
<path d="M782 4061 c-103 -36 -146 -105 -145 -237 0 -126 46 -200 142 -233 19
-6 79 -14 133 -18 l98 -6 0 59 0 59 -93 0 c-140 1 -183 36 -181 151 0 100 49
134 189 134 l85 0 0 55 0 55 -87 0 c-58 -1 -106 -7 -141 -19z"/>
<path d="M1153 3994 c-19 -5 -23 -12 -23 -44 l0 -38 81 -4 c66 -3 83 -7 95
-23 31 -42 20 -52 -67 -58 -97 -8 -124 -23 -139 -77 -32 -119 53 -198 189
-175 40 7 41 8 41 46 l0 39 -64 0 c-45 0 -69 5 -80 16 -20 20 -20 29 0 49 13
12 33 15 91 13 l76 -3 29 -77 30 -78 40 0 c39 0 40 0 33 33 -15 72 -87 277
-108 308 -12 18 -37 41 -55 52 -32 19 -125 30 -169 21z"/>
<path d="M2351 3978 c-65 -44 -91 -131 -91 -299 l0 -99 40 0 40 0 0 118 c0
137 18 192 67 209 46 16 92 -4 117 -52 18 -34 21 -58 21 -157 l0 -118 38 0 38
0 -3 143 c-3 161 -15 199 -76 245 -50 38 -143 43 -191 10z"/>
<path d="M2859 3990 c-58 -10 -101 -32 -127 -65 -48 -60 -52 -201 -9 -267 42
-63 168 -101 281 -84 l46 7 0 118 0 119 -31 6 c-17 3 -56 6 -85 6 l-54 0 0
-44 0 -45 43 -3 c39 -3 42 -5 45 -35 3 -31 3 -31 -51 -38 -41 -5 -62 -3 -85 9
-66 34 -83 132 -34 186 32 37 78 49 180 50 l72 0 0 39 c0 38 0 38 -46 45 -55
7 -83 6 -145 -4z"/>
<path d="M3231 3979 c-145 -74 -143 -328 3 -399 78 -37 173 -17 229 49 75 90
55 265 -39 337 -50 39 -131 44 -193 13z m179 -120 c52 -100 -2 -210 -102 -209
-85 1 -139 118 -89 193 56 85 152 93 191 16z"/>
<path d="M1450 3980 c0 -20 92 -294 111 -332 23 -45 63 -68 119 -68 l41 0 -3
37 c-3 34 -7 39 -48 53 -50 17 -52 21 -114 235 l-24 80 -41 3 c-25 2 -41 -1
-41 -8z"/>
<path d="M1820 3950 l0 -40 66 0 c84 0 123 -19 124 -61 0 -12 -19 -17 -85 -26
-97 -12 -120 -26 -135 -84 -17 -63 5 -131 49 -148 46 -18 92 -23 137 -16 43 6
44 7 44 46 l0 39 -63 0 c-51 0 -68 4 -82 20 -17 19 -17 21 0 40 15 17 31 20
96 20 l77 0 27 -80 27 -80 40 0 c39 0 40 1 34 28 -19 78 -98 310 -112 331 -25
36 -74 51 -164 51 l-80 0 0 -40z"/>
<path d="M3825 3978 c-54 -19 -84 -57 -111 -142 -39 -125 -52 -146 -101 -167
-39 -17 -43 -21 -43 -54 0 -34 1 -35 40 -35 84 0 116 36 158 175 29 95 55 134
92 142 32 6 43 19 54 66 6 25 4 27 -26 26 -18 0 -46 -5 -63 -11z"/>
<path d="M247 3459 c-95 -22 -173 -87 -216 -178 l-26 -56 0 -1195 0 -1195 26
-56 c33 -71 87 -125 158 -158 l56 -26 1990 0 1990 0 56 26 c71 33 125 87 158
158 l26 56 0 1195 0 1195 -26 56 c-33 71 -87 125 -158 158 l-56 26 -1970 2
c-1128 0 -1986 -3 -2008 -8z m671 -705 c15 -16 72 -17 675 -12 463 4 662 9
670 17 7 7 64 11 159 11 l148 0 -81 -77 -81 -78 -1042 -5 c-1022 -5 -1042 -5
-1076 -25 -56 -33 -80 -91 -80 -200 l-1 -90 -19 35 c-50 91 -100 286 -100 387
l0 53 406 0 c363 0 407 -2 422 -16z m3460 -201 c-5 -236 -15 -301 -80 -525
l-33 -113 -5 290 c-5 269 -7 293 -25 325 -32 53 -71 70 -174 77 l-90 6 -82 78
-81 79 287 0 287 0 -4 -217z m-2039 -38 c-16 -24 -47 -82 -69 -127 -168 -359
-110 -782 147 -1085 l45 -53 -1101 0 -1101 0 0 432 0 431 41 -59 c113 -160
275 -326 403 -411 39 -26 96 -64 127 -84 211 -142 470 -121 643 53 199 200
194 516 -10 708 -158 147 -374 179 -565 83 -167 -83 -268 -247 -269 -433 0
-93 15 -161 49 -228 21 -40 21 -43 3 -33 -68 36 -267 254 -366 399 l-56 83 0
152 c0 162 5 178 55 205 14 8 317 11 1037 12 l1017 0 -30 -45z m1828 25 c21
-13 35 -31 42 -57 7 -23 11 -163 11 -355 0 -299 -1 -319 -21 -372 -12 -31 -23
-55 -25 -53 -2 2 4 41 12 88 22 113 15 302 -15 419 -22 82 -96 250 -141 318
l-22 32 64 0 c45 0 72 -6 95 -20z m-3993 -277 l36 -73 0 -470 0 -470 -60 0
-60 0 0 603 1 602 23 -60 c13 -33 40 -93 60 -132z m1097 -14 c58 -29 117 -93
147 -158 34 -73 36 -182 5 -253 -28 -62 -96 -134 -158 -166 -43 -23 -62 -27
-140 -27 -106 0 -163 22 -230 89 -66 66 -89 126 -90 226 0 73 4 93 28 142 78
159 281 228 438 147z m2066 -2 c65 -33 127 -104 154 -176 26 -70 23 -172 -9
-244 -30 -67 -109 -141 -179 -167 -79 -30 -186 -25 -258 12 -198 101 -240 363
-84 519 96 96 251 119 376 56z m1043 -547 l0 -450 -60 0 -60 0 0 266 0 267 44
126 c24 69 49 152 56 184 7 31 15 57 17 57 1 0 3 -202 3 -450z m-160 -235 l0
-215 -150 0 c-82 0 -150 2 -150 5 0 3 37 49 82 102 89 108 129 166 177 261 17
34 33 62 36 62 3 0 5 -97 5 -215z"/>
<path d="M1070 2181 c-49 -16 -87 -40 -117 -75 -88 -99 -65 -258 49 -333 37
-25 51 -28 123 -28 74 0 86 3 124 29 140 98 128 310 -22 388 -44 22 -120 31
-157 19z m92 -87 c10 -21 18 -24 77 -26 l66 -2 -62 -3 -63 -4 16 -24 c15 -22
14 -23 -6 -18 -11 3 -23 9 -26 14 -3 5 -30 9 -59 9 -43 0 -56 -4 -65 -19 -17
-32 -11 -38 11 -11 21 25 21 24 0 -12 l-21 -36 21 -36 c19 -33 25 -36 72 -38
l52 -2 -47 -3 -46 -4 13 -26 c8 -14 19 -30 27 -34 7 -4 9 -12 4 -16 -5 -4 -11
-2 -13 5 -3 6 -9 12 -14 12 -6 0 -5 -8 1 -20 6 -11 9 -20 6 -20 -3 0 -17 23
-32 50 -24 45 -31 50 -63 52 l-36 1 33 4 c28 4 31 7 21 19 -6 8 -9 17 -5 21 3
3 6 1 6 -5 0 -7 5 -12 10 -12 7 0 7 7 -1 21 l-11 21 -17 -24 c-9 -14 -22 -23
-29 -21 -8 3 -1 24 24 69 l36 64 -26 0 c-26 0 -35 -13 -16 -25 6 -3 10 -11 10
-16 0 -6 -5 -7 -12 -3 -8 5 -9 2 -5 -9 3 -10 5 -17 3 -17 -5 0 -56 86 -56 94
0 3 27 6 59 6 55 0 61 2 76 28 14 23 22 27 47 24 19 -3 33 -13 40 -28z m91
-67 c-3 -7 4 -3 17 8 l24 20 -21 -35 c-11 -19 -32 -56 -47 -82 l-27 -48 27 0
c23 0 25 2 13 17 -11 13 -11 17 -1 20 6 3 9 10 6 16 -5 8 -4 9 3 2 5 -5 20
-28 32 -50 13 -22 17 -33 9 -24 -9 11 -25 14 -57 11 -38 -4 -43 -2 -38 12 19
45 18 50 -3 26 -19 -22 -18 -19 4 23 14 26 23 47 21 47 -3 0 4 9 15 20 12 12
18 26 14 32 -4 7 -3 8 5 4 6 -4 8 -13 4 -19z m-89 -199 c-13 -26 -18 -29 -25
-16 -13 23 -1 48 22 48 19 0 19 -1 3 -32z"/>
<path d="M1106 2095 c-8 -22 -3 -28 19 -23 14 3 14 5 2 22 -13 18 -14 18 -21
1z"/>
<path d="M956 2052 c5 -4 52 -5 104 -2 l95 6 -104 2 c-58 1 -101 -2 -95 -6z"/>
<path d="M3132 2180 c-51 -12 -109 -56 -136 -103 -89 -151 15 -337 189 -337
133 0 225 90 225 220 0 71 -26 126 -79 172 -58 50 -125 66 -199 48z m173 -112
l60 -2 -57 -3 -57 -4 17 -29 c20 -35 28 -37 42 -9 7 11 14 18 17 15 4 -3 13 0
21 7 14 11 14 9 0 -13 -8 -14 -29 -51 -47 -82 -30 -55 -30 -58 -10 -58 15 0
19 5 15 18 -3 9 -2 22 2 29 5 8 17 -4 36 -34 17 -28 21 -41 11 -33 -10 8 -33
13 -57 11 -34 -2 -40 0 -34 13 18 45 17 50 -4 26 -21 -23 -20 -22 2 21 20 37
23 49 13 63 -14 19 -29 22 -20 4 3 -7 -2 -3 -11 10 -15 20 -25 22 -100 22 -46
0 -84 -3 -84 -6 0 -3 5 -15 11 -26 8 -15 8 -19 0 -14 -6 4 -11 1 -11 -6 0 -13
-49 60 -50 75 0 4 27 7 60 7 56 0 60 2 75 29 11 22 20 28 35 24 13 -3 20 0 20
8 1 8 11 -3 23 -23 21 -37 24 -38 82 -40z m-193 -72 c6 4 5 -3 -1 -15 -7 -12
-9 -27 -5 -33 4 -6 3 -8 -3 -5 -5 3 -17 -7 -27 -24 -17 -28 -17 -29 4 -29 17
0 20 4 16 23 -3 12 -3 16 0 10 3 -7 10 -13 15 -13 6 0 7 6 4 13 -3 6 2 2 11
-10 13 -18 27 -23 68 -25 l51 -1 -47 -6 -46 -6 18 -35 18 -35 13 28 c7 16 20
27 31 27 19 0 19 -2 -3 -37 -29 -50 -33 -53 -24 -23 7 21 6 23 -7 13 -8 -7
-18 -10 -21 -6 -4 3 -7 1 -7 -5 0 -6 7 -18 16 -26 8 -9 11 -16 5 -16 -5 0 -24
27 -43 60 -30 55 -35 60 -66 60 -26 0 -33 3 -28 15 7 20 -4 19 -21 -2 -7 -10
-3 2 10 27 35 67 52 91 55 80 2 -6 8 -7 14 -4z"/>
<path d="M3176 2095 c-8 -22 -3 -28 19 -23 14 3 14 5 2 22 -13 18 -14 18 -21
1z"/>
<path d="M3026 2052 c5 -4 52 -5 104 -2 l95 6 -104 2 c-58 1 -101 -2 -95 -6z"/>
<path d="M2045 524 c-142 -17 -178 -45 -226 -174 -71 -196 -89 -220 -164 -220
l-35 0 0 -50 c0 -48 1 -49 33 -55 19 -4 52 -2 75 4 82 23 124 79 177 240 36
110 65 142 133 149 l52 5 0 53 c0 30 -3 53 -7 53 -5 -1 -21 -4 -38 -5z"/>
<path d="M2318 426 c-99 -27 -150 -86 -156 -181 -2 -35 1 -79 8 -99 61 -185
341 -180 391 7 23 87 -16 202 -86 249 -50 33 -97 40 -157 24z m100 -90 c56
-31 80 -122 47 -185 -14 -28 -68 -61 -100 -61 -32 0 -87 33 -106 64 -28 45
-25 98 8 137 45 53 105 71 151 45z"/>
<path d="M3149 407 c-19 -12 -45 -44 -58 -71 -21 -43 -25 -67 -29 -184 l-5
-135 33 6 c18 4 38 7 44 7 8 0 11 36 11 117 0 158 24 203 105 203 80 0 109
-57 110 -212 l0 -108 41 0 41 0 -4 133 c-3 118 -6 137 -28 177 -37 67 -79 90
-160 90 -53 0 -74 -5 -101 -23z"/>
<path d="M3563 422 l-63 -3 0 -193 c0 -168 2 -195 16 -200 31 -12 171 -6 224
10 99 29 149 110 135 219 -11 94 -65 149 -155 160 -76 10 -93 10 -157 7z m167
-97 c42 -22 60 -53 60 -106 0 -39 -5 -53 -30 -78 -34 -33 -95 -47 -145 -33
-27 8 -30 13 -33 58 -2 27 -1 77 3 112 l7 62 54 0 c30 0 68 -7 84 -15z"/>
<path d="M2625 340 c-12 -140 11 -230 74 -283 88 -73 227 -51 273 43 21 43 38
150 38 248 l0 72 -44 0 -45 0 2 -97 c2 -121 -6 -163 -40 -197 -34 -35 -100
-37 -131 -3 -34 36 -42 72 -42 182 0 110 -2 115 -55 115 -21 0 -23 -5 -30 -80z"/>
<path d="M4155 406 c-46 -20 -63 -46 -101 -147 -45 -122 -54 -134 -108 -149
-45 -12 -46 -14 -46 -52 l0 -39 53 7 c98 13 120 36 167 177 28 87 57 121 115
136 43 11 45 13 45 46 l0 35 -47 0 c-27 -1 -61 -7 -78 -14z"/>
</g>
</svg>
